<?xml version="1.0" encoding="UTF-8"?>
<svg width="25px" height="25px" viewBox="0 0 25 25" version="1.1" xmlns="http://www.w3.org/2000/svg" xmlns:xlink="http://www.w3.org/1999/xlink">
    <!-- Generator: Sketch 53.2 (72643) - https://sketchapp.com -->
    <title>Github</title>
    <desc>Created with Sketch.</desc>
    <g id="Page-1" stroke="none" stroke-width="1" fill="none" fill-rule="evenodd">
        <g id="Sign-in" transform="translate(-465.000000, -504.000000)" fill="#FFFFFF" fill-rule="nonzero">
            <g id="text-field" transform="translate(435.000000, 486.000000)">
                <g id="Group" transform="translate(30.000000, 18.000000)">
                    <g id="Github">
                        <path d="M23.2990888,6.2191344 C22.1824601,4.30592255 20.6678246,2.79123007 18.7547836,1.67471526 C16.8414579,0.558143508 14.7526765,0 12.486959,0 C10.2215262,0 8.1320615,0.558314351 6.2191344,1.67471526 C4.30592255,2.79117312 2.79134396,4.30592255 1.67471526,6.2191344 C0.558257403,8.13228929 0,10.2214692 0,12.4866173 C0,15.207574 0.793849658,17.654328 2.38194761,19.8275057 C3.96987472,22.0008542 6.02124146,23.5047267 8.53587699,24.3392938 C8.8285877,24.3936219 9.04527335,24.35541 9.18616173,24.2256264 C9.32710706,24.095672 9.39749431,23.9329157 9.39749431,23.738041 C9.39749431,23.7055239 9.39470387,23.4129841 9.38929385,22.8600797 C9.38371298,22.3071754 9.38109339,21.8248292 9.38109339,21.4132688 L9.00711845,21.4779613 C8.76867882,21.5216401 8.46788155,21.5401481 8.10472665,21.5349089 C7.7417426,21.5298405 7.36492027,21.4917995 6.97477221,21.4210706 C6.5844533,21.3509681 6.2214123,21.1883827 5.88536446,20.933656 C5.54948747,20.6789294 5.31104784,20.3455011 5.17010251,19.9338838 L5.00751708,19.559738 C4.89914579,19.3106492 4.72853075,19.0339408 4.49544419,18.7306378 C4.26235763,18.4270501 4.02665148,18.2212415 3.78821185,18.1128702 L3.67437358,18.0313781 C3.59851936,17.977221 3.52813212,17.9119021 3.463041,17.8361048 C3.39800683,17.7603075 3.34931663,17.6844533 3.31679954,17.6084852 C3.28422551,17.5324601 3.31121868,17.4701025 3.39806378,17.4211845 C3.48490888,17.3722665 3.64185649,17.3485194 3.86958998,17.3485194 L4.19464692,17.3970957 C4.41144647,17.4405467 4.67961276,17.5703303 4.99948747,17.7872437 C5.31919134,18.0039863 5.58200456,18.2857631 5.78798405,18.6324601 C6.03741458,19.0769932 6.33792711,19.4157175 6.69037585,19.6488041 C7.04253986,19.8818907 7.3976082,19.9982346 7.75523918,19.9982346 C8.11287016,19.9982346 8.42175399,19.9711276 8.68200456,19.9171982 C8.94197039,19.8629841 9.18587699,19.781492 9.41361048,19.6731777 C9.51116173,18.9466401 9.77676538,18.3884966 10.2101936,17.9983485 C9.59242597,17.9334282 9.03701595,17.8356492 8.54367882,17.7056378 C8.05062642,17.5754556 7.54111617,17.36418 7.01548975,17.0712415 C6.48957859,16.7787016 6.05330296,16.4154328 5.70654897,15.9820615 C5.35973804,15.5484624 5.0751139,14.9792141 4.85307517,14.2748292 C4.63092255,13.5701595 4.51981777,12.7572893 4.51981777,11.8359909 C4.51981777,10.5242027 4.94806378,9.40791572 5.80438497,8.48650342 C5.40324601,7.50028474 5.44111617,6.39470387 5.91810934,5.16987472 C6.23246014,5.07220957 6.69863326,5.14550114 7.31640091,5.38929385 C7.93428246,5.63320046 8.38667426,5.84214123 8.67403189,6.01537585 C8.96138952,6.18855353 9.1916287,6.33530752 9.36509112,6.45432802 C10.3733485,6.1726082 11.4138383,6.03171982 12.4868451,6.03171982 C13.5598519,6.03171982 14.6005695,6.1726082 15.6088838,6.45432802 L16.2267084,6.06429385 C16.6492027,5.80404328 17.1481207,5.5655467 17.7222665,5.34874715 C18.296754,5.1320615 18.7360478,5.07238041 19.0396925,5.17004556 C19.5272779,6.39493166 19.5707289,7.50045558 19.1694761,8.48667426 C20.0257403,9.40808656 20.4541572,10.5246583 20.4541572,11.8361617 C20.4541572,12.7574601 20.3426538,13.5728929 20.1208428,14.2829727 C19.8987472,14.9931663 19.6116743,15.5618451 19.2595103,15.990205 C18.9069476,16.418508 18.4678815,16.7789294 17.9422551,17.0714123 C17.4165148,17.364123 16.9068337,17.5753986 16.4137813,17.7055809 C15.9205011,17.8357631 15.3650911,17.9335991 14.7473235,17.9986333 C15.3107631,18.4862187 15.5925399,19.2558656 15.5925399,20.3072323 L15.5925399,23.7375854 C15.5925399,23.9324601 15.6603075,24.0951595 15.7959567,24.2251708 C15.9314351,24.3549544 16.1453872,24.3931663 16.4380979,24.3387813 C18.9530752,23.504328 21.0044419,22.0003986 22.5923121,19.8270501 C24.1800114,17.6538724 24.9741458,15.2071185 24.9741458,12.4861617 C24.9735763,10.2212984 24.4150342,8.13228929 23.2990888,6.2191344 Z" id="Path"></path>
                    </g>
                </g>
            </g>
        </g>
    </g>
</svg>