<?xml version="1.0" encoding="UTF-8"?>
<svg width="11px" height="10px" viewBox="0 0 11 10" version="1.1" xmlns="http://www.w3.org/2000/svg" xmlns:xlink="http://www.w3.org/1999/xlink">
    <!-- Generator: sketchtool 53.2 (72643) - https://sketchapp.com -->
    <title>E445B212-AFDE-4D55-9830-E43C0173F0B1</title>
    <desc>Created with sketchtool.</desc>
    <g id="Page-1" stroke="none" stroke-width="1" fill="none" fill-rule="evenodd">
        <g id="landing-page" transform="translate(-166.000000, -1400.000000)" fill="#000000" fill-rule="nonzero">
            <g id="person-2" transform="translate(42.000000, 1364.000000)">
                <g id="person">
                    <g id="statistics" transform="translate(70.000000, 33.000000)">
                        <g id="twitter" transform="translate(54.000000, 0.000000)">
                            <path d="M9.56321465,5.55267138 C9.10488944,4.76738506 8.48320054,4.1456728 7.69798435,3.68739433 C6.91265129,3.22909249 6.05530171,3 5.12532787,3 C4.19547089,3 3.33784082,3.22916261 2.55267138,3.68739433 C1.76738506,4.14564942 1.14571955,4.76738506 0.687394329,5.55267138 C0.229139234,6.33793431 0,7.19544752 0,8.12518762 C0,9.24201641 0.325839123,10.2462975 0.977680991,11.1382879 C1.62945274,12.0303485 2.47144534,12.6476196 3.50358868,12.9901714 C3.62373309,13.0124706 3.71267268,12.9967864 3.77050094,12.9435161 C3.82835258,12.8901757 3.85724334,12.8233717 3.85724334,12.7433845 C3.85724334,12.7300377 3.85609799,12.6099635 3.85387743,12.3830214 C3.85158674,12.1560794 3.85051151,11.9580982 3.85051151,11.7891714 L3.69701183,11.8157247 C3.59914322,11.8336529 3.47567965,11.8412496 3.32662111,11.8390991 C3.17763269,11.8370188 3.02296429,11.8214047 2.86282628,11.7923737 C2.70261815,11.7635998 2.55360635,11.6968659 2.41567402,11.5923122 C2.27781182,11.4877586 2.17994321,11.3509014 2.12209157,11.1819513 L2.05535766,11.0283815 C2.01087618,10.9261419 1.94084648,10.8125657 1.84517507,10.6880736 C1.74950365,10.5634647 1.65275701,10.4789896 1.5548884,10.4345081 L1.50816298,10.4010594 C1.47702828,10.3788303 1.44813752,10.3520199 1.42142058,10.3209085 C1.39472702,10.2897972 1.37474191,10.2586625 1.36139513,10.2274811 C1.34802497,10.1962763 1.35910444,10.1706813 1.39475039,10.1506027 C1.43039635,10.1305241 1.4948162,10.1207769 1.58829042,10.1207769 L1.72171149,10.1407153 C1.81069783,10.15855 1.92076787,10.2118202 2.05206187,10.3008533 C2.18328575,10.3898163 2.2911586,10.5054728 2.3757038,10.6477761 C2.47808367,10.8302367 2.60143037,10.9692676 2.74609453,11.064939 C2.89064181,11.1606105 3.03638119,11.2083644 3.18317242,11.2083644 C3.32996364,11.2083644 3.45674639,11.1972381 3.56356739,11.1751026 C3.67027152,11.1528502 3.77038407,11.1194014 3.86385829,11.0749433 C3.90389864,10.7767327 4.01291684,10.5476402 4.19081939,10.3875022 C3.93725391,10.3608554 3.70928339,10.3207216 3.50679097,10.2673578 C3.30441543,10.2139239 3.09528468,10.1272049 2.87953897,10.006967 C2.6636764,9.8868927 2.48460513,9.73778741 2.34227841,9.55990824 C2.19992832,9.38193556 2.08310307,9.14828507 1.99196629,8.85916713 C1.90078276,8.56993231 1.85517931,8.23628614 1.85517931,7.85813511 C1.85517931,7.31970583 2.03095479,6.86152085 2.38243563,6.48332308 C2.21778636,6.07852523 2.23333034,5.62473465 2.4291143,5.12199807 C2.55814099,5.08191098 2.74948382,5.11199383 3.0030493,5.21205963 C3.25666153,5.31217218 3.44234776,5.39793286 3.56029497,5.46903778 C3.67824219,5.54011932 3.77274489,5.60035515 3.84394331,5.64920765 C4.25778704,5.53357449 4.68486069,5.47574623 5.12528112,5.47574623 C5.56570154,5.47574623 5.99286869,5.53357449 6.4067358,5.64920765 L6.66032465,5.48911639 C6.83373932,5.38229538 7.03852243,5.2844034 7.27418312,5.19541706 C7.50998406,5.10647747 7.69029418,5.0819811 7.81492647,5.1220682 C8.01505808,5.62482815 8.03289274,6.07859536 7.86819673,6.4833932 C8.21965419,6.86159098 8.3954998,7.31989282 8.3954998,7.85820523 C8.3954998,8.23635626 8.34973272,8.57105428 8.25868944,8.86250966 C8.16752928,9.1540118 8.04969894,9.38742854 7.90515165,9.56325077 C7.76044075,9.73904963 7.58022413,9.8869862 7.36447843,10.0070371 C7.14868597,10.1271815 6.9394851,10.2139005 6.73710956,10.2673344 C6.53464051,10.3207683 6.30667,10.3609255 6.05310451,10.3876191 C6.28437082,10.5877507 6.40002735,10.9036557 6.40002735,11.3351938 L6.40002735,12.7431975 C6.40002735,12.8231847 6.42784288,12.8899654 6.4835207,12.9433291 C6.5391284,12.9965994 6.62694601,13.0122836 6.74709042,12.9899611 C7.77937401,12.647456 8.62136662,12.0301615 9.27311499,11.1381009 C9.92479323,10.2461105 10.2507492,9.24182941 10.2507492,8.12500062 C10.2505155,7.1953774 10.0212594,6.33793431 9.56321465,5.55267138 Z" id="Path"></path>
                        </g>
                    </g>
                </g>
            </g>
        </g>
    </g>
</svg>