<?xml version="1.0" encoding="UTF-8"?>
<svg width="25px" height="25px" viewBox="0 0 25 25" version="1.1" xmlns="http://www.w3.org/2000/svg" xmlns:xlink="http://www.w3.org/1999/xlink">
    <!-- Generator: Sketch 53.2 (72643) - https://sketchapp.com -->
    <title>Instagram</title>
    <desc>Created with Sketch.</desc>
    <defs>
        <radialGradient cx="26.5626266%" cy="107.702106%" fx="26.5626266%" fy="107.702106%" r="99.107386%" gradientTransform="translate(0.265626,1.077021),scale(0.999727,1.000000),rotate(-90.000000),translate(-0.265626,-1.077021)" id="radialGradient-1">
            <stop stop-color="#FFDD55" offset="0%"></stop>
            <stop stop-color="#FFDD55" offset="10%"></stop>
            <stop stop-color="#FF543E" offset="50%"></stop>
            <stop stop-color="#C837AB" offset="100%"></stop>
        </radialGradient>
        <radialGradient cx="-16.7505274%" cy="7.20383154%" fx="-16.7505274%" fy="7.20383154%" r="44.3018739%" gradientTransform="translate(-0.167505,0.072038),scale(0.999727,1.000000),rotate(78.677638),translate(0.167505,-0.072038)" id="radialGradient-2">
            <stop stop-color="#3771C8" offset="0%"></stop>
            <stop stop-color="#3771C8" offset="12.8%"></stop>
            <stop stop-color="#6600FF" stop-opacity="0" offset="100%"></stop>
        </radialGradient>
    </defs>
    <g id="Page-1" stroke="none" stroke-width="1" fill="none" fill-rule="evenodd">
        <g id="Sign-in" transform="translate(-465.000000, -304.000000)" fill-rule="nonzero">
            <g id="text-field" transform="translate(435.000000, 286.000000)">
                <g id="Instagram" transform="translate(30.000000, 18.000000)">
                    <path d="M12.4110687,0 C7.23129771,0 5.71641221,0.00534351145 5.42194656,0.0297709924 C4.35896947,0.118129771 3.69751908,0.285496183 2.9769084,0.644274809 C2.42156489,0.920038168 1.98358779,1.23969466 1.55133588,1.68778626 C0.764122137,2.50496183 0.287022901,3.51030534 0.114312977,4.70534351 C0.0303435115,5.28549618 0.00591603053,5.40381679 0.000954198473,8.36717557 C-0.000954198473,9.35496183 0.000954198473,10.6549618 0.000954198473,12.3986641 C0.000954198473,17.5742366 0.00667938931,19.0875954 0.0314885496,19.3814885 C0.117366412,20.4158397 0.279580153,21.0666031 0.623091603,21.7784351 C1.27958015,23.1410305 2.53339695,24.1639313 4.01049618,24.5456107 C4.52194656,24.6772901 5.08683206,24.7498092 5.8120229,24.7841603 C6.11927481,24.7975191 9.2509542,24.8070611 12.384542,24.8070611 C15.5181298,24.8070611 18.6517176,24.8032443 18.9513359,24.7879771 C19.7910305,24.7484733 20.278626,24.6830153 20.8177481,24.5437023 C22.3043893,24.1601145 23.5353053,23.1524809 24.2051527,21.7708015 C24.5419847,21.076145 24.7127863,20.4005725 24.7900763,19.420229 C24.8068702,19.2064885 24.8139313,15.7986641 24.8139313,12.3954198 C24.8139313,8.99160305 24.8062977,5.59007634 24.7895038,5.37633588 C24.7112595,4.38015267 24.540458,3.71030534 24.1927481,3.00229008 C23.9074427,2.42270992 23.5906489,1.9898855 23.1307252,1.54732824 C22.3099237,0.763358779 21.3061069,0.286259542 20.1099237,0.113740458 C19.5303435,0.0299618321 19.4148855,0.00515267176 16.4492366,0 L12.4110687,0 Z" id="Path" fill="url(#radialGradient-1)"></path>
                    <path d="M12.4110687,0 C7.23129771,0 5.71641221,0.00534351145 5.42194656,0.0297709924 C4.35896947,0.118129771 3.69751908,0.285496183 2.9769084,0.644274809 C2.42156489,0.920038168 1.98358779,1.23969466 1.55133588,1.68778626 C0.764122137,2.50496183 0.287022901,3.51030534 0.114312977,4.70534351 C0.0303435115,5.28549618 0.00591603053,5.40381679 0.000954198473,8.36717557 C-0.000954198473,9.35496183 0.000954198473,10.6549618 0.000954198473,12.3986641 C0.000954198473,17.5742366 0.00667938931,19.0875954 0.0314885496,19.3814885 C0.117366412,20.4158397 0.279580153,21.0666031 0.623091603,21.7784351 C1.27958015,23.1410305 2.53339695,24.1639313 4.01049618,24.5456107 C4.52194656,24.6772901 5.08683206,24.7498092 5.8120229,24.7841603 C6.11927481,24.7975191 9.2509542,24.8070611 12.384542,24.8070611 C15.5181298,24.8070611 18.6517176,24.8032443 18.9513359,24.7879771 C19.7910305,24.7484733 20.278626,24.6830153 20.8177481,24.5437023 C22.3043893,24.1601145 23.5353053,23.1524809 24.2051527,21.7708015 C24.5419847,21.076145 24.7127863,20.4005725 24.7900763,19.420229 C24.8068702,19.2064885 24.8139313,15.7986641 24.8139313,12.3954198 C24.8139313,8.99160305 24.8062977,5.59007634 24.7895038,5.37633588 C24.7112595,4.38015267 24.540458,3.71030534 24.1927481,3.00229008 C23.9074427,2.42270992 23.5906489,1.9898855 23.1307252,1.54732824 C22.3099237,0.763358779 21.3061069,0.286259542 20.1099237,0.113740458 C19.5303435,0.0299618321 19.4148855,0.00515267176 16.4492366,0 L12.4110687,0 Z" id="Path" fill="url(#radialGradient-2)"></path>
                    <path d="M12.4053435,3.24427481 C9.91755725,3.24427481 9.60534351,3.25515267 8.62824427,3.29961832 C7.65305344,3.34427481 6.98740458,3.49866412 6.40496183,3.72519084 C5.80248092,3.95916031 5.29141221,4.2721374 4.78225191,4.78148855 C4.27270992,5.29064885 3.95973282,5.80171756 3.725,6.40400763 C3.49790076,6.98664122 3.34332061,7.65248092 3.29942748,8.62729008 C3.25572519,9.60438931 3.24427481,9.91679389 3.24427481,12.4045802 C3.24427481,14.8923664 3.25534351,15.203626 3.29961832,16.1807252 C3.34446565,17.155916 3.49885496,17.8215649 3.72519084,18.4040076 C3.95935115,19.0064885 4.27232824,19.5175573 4.78167939,20.0267176 C5.29064885,20.5362595 5.80171756,20.85 6.40381679,21.0839695 C6.98664122,21.3104962 7.65248092,21.4648855 8.62748092,21.509542 C9.60458015,21.5540076 9.91660305,21.5648855 12.4041985,21.5648855 C14.8921756,21.5648855 15.2034351,21.5540076 16.1805344,21.509542 C17.1557252,21.4648855 17.8221374,21.3104962 18.4049618,21.0839695 C19.0072519,20.85 19.5175573,20.5362595 20.0265267,20.0267176 C20.5360687,19.5175573 20.8490458,19.0064885 21.0837786,18.4041985 C21.3089695,17.8215649 21.4635496,17.1557252 21.5093511,16.180916 C21.5532443,15.2038168 21.5646947,14.8923664 21.5646947,12.4045802 C21.5646947,9.91679389 21.5532443,9.60458015 21.5093511,8.62748092 C21.4635496,7.65229008 21.3089695,6.98664122 21.0837786,6.40419847 C20.8490458,5.80171756 20.5360687,5.29064885 20.0265267,4.78148855 C19.5169847,4.27194656 19.0074427,3.95896947 18.4043893,3.72519084 C17.8204198,3.49866412 17.1543893,3.34427481 16.1791985,3.29961832 C15.2020992,3.25515267 14.8910305,3.24427481 12.4024809,3.24427481 L12.4053435,3.24427481 Z M11.5835878,4.89503817 C11.8274809,4.89465649 12.0996183,4.89503817 12.4053435,4.89503817 C14.851145,4.89503817 15.1410305,4.90381679 16.1068702,4.94770992 C17,4.98854962 17.4847328,5.13778626 17.8076336,5.26316794 C18.2351145,5.42919847 18.5398855,5.62767176 18.8603053,5.94828244 C19.180916,6.26889313 19.3793893,6.57423664 19.5458015,7.00171756 C19.6711832,7.32423664 19.8206107,7.80896947 19.8612595,8.70209924 C19.9051527,9.66774809 19.9146947,9.95782443 19.9146947,12.4024809 C19.9146947,14.8471374 19.9051527,15.1372137 19.8612595,16.1028626 C19.8204198,16.9959924 19.6711832,17.4807252 19.5458015,17.8032443 C19.379771,18.2307252 19.180916,18.5351145 18.8603053,18.8555344 C18.5396947,19.176145 18.2353053,19.3746183 17.8076336,19.5406489 C17.4851145,19.6666031 17,19.815458 16.1068702,19.8562977 C15.1412214,19.9001908 14.851145,19.9097328 12.4053435,19.9097328 C9.95935115,19.9097328 9.66946565,19.9001908 8.70381679,19.8562977 C7.81068702,19.8150763 7.3259542,19.6658397 7.0028626,19.540458 C6.57538168,19.3744275 6.27003817,19.1759542 5.94942748,18.8553435 C5.62881679,18.5347328 5.43034351,18.2301527 5.2639313,17.8024809 C5.13854962,17.4799618 4.98912214,16.995229 4.94847328,16.1020992 C4.90458015,15.1364504 4.89580153,14.846374 4.89580153,12.4001908 C4.89580153,9.95400763 4.90458015,9.66545802 4.94847328,8.69980916 C4.98931298,7.80667939 5.13854962,7.32194656 5.2639313,6.9990458 C5.42996183,6.57156489 5.62881679,6.26622137 5.94942748,5.94561069 C6.27003817,5.625 6.57538168,5.42652672 7.0028626,5.2601145 C7.32576336,5.13416031 7.81068702,4.98530534 8.70381679,4.94427481 C9.54885496,4.90610687 9.87633588,4.89465649 11.5835878,4.89274809 L11.5835878,4.89503817 Z M17.2950382,6.41603053 C16.6881679,6.41603053 16.1958015,6.90782443 16.1958015,7.5148855 C16.1958015,8.12175573 16.6881679,8.61412214 17.2950382,8.61412214 C17.9019084,8.61412214 18.3942748,8.12175573 18.3942748,7.5148855 C18.3942748,6.90801527 17.9019084,6.41564885 17.2950382,6.41564885 L17.2950382,6.41603053 Z M12.4053435,7.70038168 C9.80744275,7.70038168 7.70114504,9.80667939 7.70114504,12.4045802 C7.70114504,15.0024809 9.80744275,17.1078244 12.4053435,17.1078244 C15.0032443,17.1078244 17.1087786,15.0024809 17.1087786,12.4045802 C17.1087786,9.80667939 15.0030534,7.70038168 12.4051527,7.70038168 L12.4053435,7.70038168 Z M12.4053435,9.35114504 C14.0916031,9.35114504 15.4587786,10.7181298 15.4587786,12.4045802 C15.4587786,14.0908397 14.0916031,15.4580153 12.4053435,15.4580153 C10.7188931,15.4580153 9.3519084,14.0908397 9.3519084,12.4045802 C9.3519084,10.7181298 10.7188931,9.35114504 12.4053435,9.35114504 Z" id="Shape" fill="#FFFFFF"></path>
                </g>
            </g>
        </g>
    </g>
</svg>