<?xml version="1.0" encoding="UTF-8"?>
<svg width="35px" height="35px" viewBox="0 0 35 35" version="1.1" xmlns="http://www.w3.org/2000/svg" xmlns:xlink="http://www.w3.org/1999/xlink">
    <!-- Generator: Sketch 53.2 (72643) - https://sketchapp.com -->
    <title>logo</title>
    <desc>Created with Sketch.</desc>
    <g id="Page-1" stroke="none" stroke-width="1" fill="none" fill-rule="evenodd">
        <g id="Sign-in" transform="translate(-456.000000, -202.000000)" fill="#FF5A00">
            <g id="logo" transform="translate(456.000000, 202.000000)">
                <path d="M2.54084658,9.85266301 C1.11179178,14.6075808 1.3206411,19.2243205 3.98073699,23.4982521 C6.93368219,28.2426219 11.2999562,30.7328 16.9141479,30.5530055 C22.1521616,30.3852932 26.2002712,27.9075808 28.7610247,23.3139507 C32.8910247,15.9053616 29.5372575,6.4238137 21.7174904,3.08673151 C18.0720247,1.53100548 14.3576137,1.34507397 10.5626548,2.43506027 C10.4212164,2.47562192 10.2719151,2.48885479 9.86025753,2.56230685 C11.5849425,1.30307397 13.3080932,0.691580822 15.1081479,0.388279452 C21.8554767,-0.748884932 27.4545178,1.43262192 31.4474904,6.90000548 C39.2508603,17.5849781 33.167189,32.4271836 20.0941616,34.6924986 C11.1852712,36.2363342 2.49549041,30.7901425 0.40929863,21.6467041 C-0.543852055,17.4694301 0.168326027,13.4852795 2.54084658,9.85266301" id="Fill-1"></path>
                <path d="M2.21122329,2.09575205 C7.03201781,5.98871096 11.8531959,9.88138219 16.6734151,13.7751082 C17.2941137,14.2765192 17.9312096,14.7602863 18.5235247,15.2935329 C19.5953877,16.2586699 19.625689,17.7146699 18.6274699,18.7078068 C17.7049082,19.6257658 16.1445795,19.6126288 15.2745658,18.5705877 C13.2492644,16.1441767 11.2761274,13.6742315 9.28946986,11.2156973 C6.9750589,8.35164247 4.66831918,5.48135479 2.36042877,2.61193014 C2.25331918,2.47883425 2.16874384,2.32761507 2.07362055,2.18493014 C2.11955205,2.15520411 2.16538767,2.12547808 2.21122329,2.09575205" id="Fill-4"></path>
            </g>
        </g>
    </g>
</svg>