<?xml version="1.0" encoding="UTF-8"?>
<svg width="13px" height="10px" viewBox="0 0 13 10" version="1.1" xmlns="http://www.w3.org/2000/svg" xmlns:xlink="http://www.w3.org/1999/xlink">
    <!-- Generator: sketchtool 53.2 (72643) - https://sketchapp.com -->
    <title>7C675D78-24B8-4D50-AA7B-E8B8E1038527</title>
    <desc>Created with sketchtool.</desc>
    <g id="Page-1" stroke="none" stroke-width="1" fill="none" fill-rule="evenodd">
        <g id="landing-page" transform="translate(-112.000000, -1400.000000)" fill="#1DA1F2" fill-rule="nonzero">
            <g id="person-2" transform="translate(42.000000, 1364.000000)">
                <g id="person">
                    <g id="statistics" transform="translate(70.000000, 33.000000)">
                        <g id="twitter">
                            <path d="M3.86968591,13 C8.51322049,13 11.0524107,9.15307005 11.0524107,5.81727609 C11.0524107,5.70801012 11.0501851,5.59923715 11.0452839,5.49095596 C11.5382084,5.13461316 11.966657,4.68992252 12.304543,4.18370836 C11.8522235,4.38476662 11.3654514,4.52011821 10.8548076,4.58114956 C11.3760333,4.26861051 11.7761807,3.77420953 11.9649344,3.18481585 C11.4771774,3.47397544 10.9370027,3.68413947 10.3618827,3.79758816 C9.90119619,3.30687813 9.24535758,3 8.51913657,3 C7.1250181,3 5.99446535,4.13055274 5.99446535,5.52417863 C5.99446535,5.72228338 6.01661352,5.91497496 6.05992633,6.0997904 C3.96173544,5.99421662 2.10126951,4.98966402 0.856284123,3.46216308 C0.639475642,3.83524047 0.514460684,4.26861051 0.514460684,4.73101969 C0.514460684,5.60686597 0.960135271,6.38009114 1.63787597,6.83241059 C1.22370142,6.81961387 0.834627719,6.70591826 0.494526503,6.51667278 C0.494154889,6.52726459 0.494154889,6.53759091 0.494154889,6.54891109 C0.494154889,7.77150221 1.36434108,8.79229721 2.5195029,9.02362464 C2.30737056,9.0814568 2.08416372,9.11246424 1.85382065,9.11246424 C1.69139907,9.11246424 1.53316103,9.09647825 1.37935303,9.06693744 C1.70075052,10.0700135 2.6327055,10.7999259 3.7376648,10.8203522 C2.87363088,11.4976003 1.78516049,11.9009477 0.602190406,11.9009477 C0.398670829,11.9009477 0.197612985,11.8893715 0,11.866002 C1.11726384,12.5821341 2.44395261,13 3.86981639,13" id="path3611"></path>
                        </g>
                    </g>
                </g>
            </g>
        </g>
    </g>
</svg>