<?xml version="1.0" encoding="UTF-8"?>
<svg width="25px" height="21px" viewBox="0 0 25 21" version="1.1" xmlns="http://www.w3.org/2000/svg" xmlns:xlink="http://www.w3.org/1999/xlink">
    <!-- Generator: Sketch 53.2 (72643) - https://sketchapp.com -->
    <title>twitter</title>
    <desc>Created with Sketch.</desc>
    <g id="Page-1" stroke="none" stroke-width="1" fill="none" fill-rule="evenodd">
        <g id="Sign-in" transform="translate(-465.000000, -411.000000)" fill="#FFFFFF" fill-rule="nonzero">
            <path d="M472.862311,431.317699 C482.296905,431.317699 487.455955,423.501622 487.455955,416.724057 C487.455955,416.502053 487.451433,416.281052 487.441475,416.061049 C488.442984,415.337043 489.313493,414.433534 490,413.405023 C489.080991,413.813527 488.091982,414.08853 487.054471,414.212532 C488.113482,413.577525 488.926489,412.573016 489.309993,411.375503 C488.318984,411.963009 487.221473,412.390014 486.052961,412.620516 C485.116952,411.623506 483.784439,411 482.308925,411 C479.476397,411 477.179374,413.297023 477.179374,416.12855 C477.179374,416.531053 477.224374,416.922558 477.312376,417.298061 C473.049335,417.083559 469.269296,415.042539 466.739772,411.939009 C466.299267,412.697016 466.045266,413.577525 466.045266,414.517034 C466.045266,416.296552 466.950774,417.867567 468.327787,418.786576 C467.48628,418.760576 466.695771,418.529573 466.004764,418.14507 C466.004009,418.16659 466.004009,418.187571 466.004009,418.210571 C466.004009,420.694595 467.772027,422.768615 470.11905,423.238619 C469.688046,423.356121 469.234541,423.419121 468.766537,423.419121 C468.436534,423.419121 468.11503,423.386641 467.802528,423.326621 C468.455534,425.364641 470.349052,426.847655 472.594075,426.889156 C470.838557,428.265169 468.627035,429.084678 466.223512,429.084678 C465.810007,429.084678 465.401504,429.061157 465,429.013676 C467.270023,430.468692 469.965549,431.317699 472.862576,431.317699" id="twitter"></path>
        </g>
    </g>
</svg>