<?xml version="1.0" encoding="UTF-8"?>
<svg width="13px" height="9px" viewBox="0 0 13 9" version="1.1" xmlns="http://www.w3.org/2000/svg" xmlns:xlink="http://www.w3.org/1999/xlink">
    <!-- Generator: sketchtool 53.2 (72643) - https://sketchapp.com -->
    <title>88D90AF9-FFD2-4641-B8F1-F62B65EFE62B</title>
    <desc>Created with sketchtool.</desc>
    <g id="Page-1" stroke="none" stroke-width="1" fill="none" fill-rule="evenodd">
        <g id="landing-page" transform="translate(-1195.000000, -1491.000000)" fill-rule="nonzero">
            <g id="person-2" transform="translate(42.000000, 1454.000000)">
                <g id="person" transform="translate(983.000000, 0.000000)">
                    <g id="statistics" transform="translate(70.000000, 33.000000)">
                        <g id="twitter" transform="translate(100.000000, 0.000000)">
                            <g id="youtube" transform="translate(0.000000, 4.000000)">
                                <path d="M12.5677475,1.4058584 C12.4198191,0.856144261 11.9864113,0.422834436 11.4367951,0.27480812 C10.4326245,0 6.41594221,0 6.41594221,0 C6.41594221,0 2.39935777,0 1.39518719,0.264332707 C0.856144261,0.412261128 0.412163208,0.856242155 0.264234812,1.4058584 C0,2.40993108 0,4.49228541 0,4.49228541 C0,4.49228541 0,6.58511514 0.264234812,7.57871241 C0.412261128,8.12832862 0.845570952,8.56173637 1.39528509,8.70976268 C2.40993108,8.9845708 6.4160401,8.9845708 6.4160401,8.9845708 C6.4160401,8.9845708 10.4326245,8.9845708 11.4367951,8.7202381 C11.9865092,8.57230967 12.4198191,8.13890195 12.5678454,7.58928571 C12.8320802,6.58511514 12.8320802,4.5028587 12.8320802,4.5028587 C12.8320802,4.5028587 12.8426535,2.40993108 12.5677475,1.4058584 Z" id="Shape" fill="#FF0000"></path>
                                <polygon id="Shape" fill="#FFFFFF" points="5.1370614 6.4160401 8.4771499 4.49228541 5.1370614 2.5685307"></polygon>
                            </g>
                        </g>
                    </g>
                </g>
            </g>
        </g>
    </g>
</svg>